<?xml version="1.0" standalone="no"?>
<!DOCTYPE svg PUBLIC "-//W3C//DTD SVG 20010904//EN" "http://www.w3.org/TR/2001/REC-SVG-20010904/DTD/svg10.dtd">
<!-- Created using Krita: https://krita.org -->
<svg xmlns="http://www.w3.org/2000/svg" 
    xmlns:xlink="http://www.w3.org/1999/xlink"
    xmlns:krita="http://krita.org/namespaces/svg/krita"
    xmlns:sodipodi="http://sodipodi.sourceforge.net/DTD/sodipodi-0.dtd"
    width="46.8pt"
    height="60pt"
    viewBox="0 0 46.8 60">
<defs/>
<path id="shape08" transform="matrix(-2.17316781366603 0 0 2.1731137883141 43.1548243183792 27.3461076148823)" fill="#ffffff" fill-rule="evenodd" stroke="#000000" stroke-width="0.24" stroke-linecap="square" stroke-linejoin="bevel" d="M4.17343 0C-0.327893 5.17086 -1.59715 11.5912 2.40457 12.9677C6.76955 13.9539 11.2625 13.6028 11.7652 12.9007C15.9351 14.1111 19.3176 13.508 15.3883 10.5501C15.9662 8.05198 14.4743 5.15687 13.873 2.30144C13.8858 2.25004 10.6526 1.4829 4.17343 0Z" sodipodi:nodetypes="cccccc"/><path id="shape18" transform="matrix(-2.17316781366603 0 0 2.1731137883141 24.737261471925 50.0431279518983)" fill="none" stroke="#000000" stroke-width="0.24" stroke-linecap="square" stroke-linejoin="bevel" d="M3.22835 2.39713C3.38946 1.26315 2.31335 0.464108 0 0" sodipodi:nodetypes="cc"/><path id="shape44" transform="matrix(1.97204623786278 -0.913044649033223 0.913067348055594 1.97199721243025 -0.0195135426351882 10.5852608432935)" fill="#ffffff" fill-rule="evenodd" stroke="#000000" stroke-width="0.24" stroke-linecap="square" stroke-linejoin="bevel" d="M3.45153 4.20877C3.68823 1.72064 4.71538 0.472625 6.23677 0C5.80163 1.11294 5.06797 2.1738 6.52081 3.6161C8.76408 3.59612 10.9046 3.89346 12.5368 5.76074C14.8125 5.31011 14.7896 4.09742 15.6772 3.32393C16.1133 5.69497 15.7001 7.23081 14.4374 7.93146C14.7783 9.04694 14.8682 9.98555 14.5852 10.6615L16.3138 11.0196C14.233 14.7834 10.4408 16.394 4.87863 13.9817C0.648532 11.9386 -0.830732 8.92332 0.440834 4.93588L1.75931 6.08377C1.46589 6.0341 2.02996 5.4091 3.45153 4.20877Z" sodipodi:nodetypes="cccccccccccc"/><path id="shape110" transform="matrix(2.01943520420629 0.802812403995093 0.802832362555429 -2.01938500067533 13.409989636063 27.7937605665102)" fill="none" stroke-opacity="0" stroke="#000000" stroke-width="0.24" stroke-linecap="square" stroke-linejoin="bevel" d="M0.15035 0.0142166C0.094528 0.0185352 0.0515251 0.0234901 0 0" sodipodi:nodetypes="cc"/><path id="shape24" transform="matrix(-2.12147597150145 -0.471154975574333 -0.471166688864961 2.12142323121823 34.3304712839638 11.1314338706705)" fill="none" stroke-opacity="0" stroke="#000000" stroke-width="0.24" stroke-linecap="square" stroke-linejoin="bevel" d="M0.0956389 0.894549C-0.56885 1.09875 2.46416 0.498361 1.97951 0" sodipodi:nodetypes="cc"/><path id="shape53" transform="matrix(2.01943520420629 0.802812403995092 0.802832362555429 -2.01938500067533 22.3880815623414 23.580626716168)" fill="none" stroke="#000000" stroke-width="0.24" stroke-linecap="square" stroke-linejoin="bevel" d="M3.67266 0L4.59596 3.4035L0.887966 4.86398L0 1.47415Z" sodipodi:nodetypes="ccccc"/><path id="shape63" transform="matrix(2.01943520420629 0.802812403995092 0.802832362555429 -2.01938500067533 22.4184369719174 23.4060048990949)" fill="#000000" fill-rule="evenodd" stroke-opacity="0" stroke="#000000" stroke-width="0.24" stroke-linecap="square" stroke-linejoin="bevel" d="M3.80116 0C2.27112 2.51944 1.32682 4.16282 0.968281 4.93014L0 1.21032Z" sodipodi:nodetypes="cccc"/><path id="shape73" transform="matrix(2.01943520420629 0.802812403995092 0.802832362555429 -2.01938500067533 9.36568095940264 24.2793901187202)" fill="none" stroke="#000000" stroke-width="0.24" stroke-linecap="square" stroke-linejoin="bevel" d="M3.67266 0L4.59596 3.4035L0.887966 4.86398L0 1.47415Z" sodipodi:nodetypes="ccccc"/><path id="shape82" transform="matrix(2.01943520420629 0.802812403995092 0.802832362555429 -2.01938500067533 9.38526788683527 24.1772090372849)" fill="#000000" fill-rule="evenodd" stroke-opacity="0" stroke="#000000" stroke-width="0.24" stroke-linecap="square" stroke-linejoin="bevel" d="M3.7896 0L0.912382 4.71689L0 1.47934Z" sodipodi:nodetypes="cccc"/><rect id="shape302" transform="matrix(-2.17316781366603 0 0 1.97965118597188 24.4511115659124 35.8969985374062)" fill="#ffffff" fill-rule="evenodd" stroke="#000000" stroke-width="0.24" stroke-linecap="square" stroke-linejoin="bevel" width="4.56000000000006" height="6.01876596283597"/><rect id="shape343" transform="matrix(-2.17316781366603 0 0 1.97965118597188 24.4511115659124 38.6664278856136)" fill="none" stroke="#000000" stroke-width="0.24" stroke-linecap="square" stroke-linejoin="bevel" width="4.56000000000006" height="3.22086967905412"/><path id="shape355" transform="matrix(-2.17316781366603 0 0 2.1731137883141 24.6399858008118 30.3306973314312)" fill="#ffffff" fill-rule="evenodd" stroke="#000000" stroke-width="0.24" stroke-linecap="square" stroke-linejoin="bevel" d="M2.59547 2.47122L2.62824 1.16958L0.308411 0L0 0.679934L1.73867 1.53703L1.73385 2.4581" sodipodi:nodetypes="cccccc"/><path id="shape3512" transform="matrix(-2.17316781366603 0 0 2.1731137883141 24.6399858008118 30.3306973314312)" fill="#ffffff" fill-rule="evenodd" stroke="#000000" stroke-width="0.24" stroke-linecap="square" stroke-linejoin="bevel" d="M2.59547 2.47122L2.62824 1.16958L0.308411 0L0 0.679934L1.73867 1.53703L1.73385 2.4581" sodipodi:nodetypes="cccccc"/><path id="shape010" transform="matrix(-2.17316781366603 0 0 2.1731137883141 31.8965934191159 38.7105948500066)" fill="#ffffff" stroke="#000000" stroke-width="0.24" stroke-linecap="square" stroke-linejoin="bevel" d="M0 2.04937C4.57625 5.26255 8.17714 4.76655 3.61162 0" sodipodi:nodetypes="cc"/><path id="shape111" transform="matrix(-2.17316781366603 0 0 2.1731137883141 17.5691468230913 40.0188449573366)" fill="#ffffff" stroke="#000000" stroke-width="0.24" stroke-linecap="square" stroke-linejoin="bevel" d="M1.61599 0C-2.23748 2.63248 1.83787 4.39826 3.17025 2.29051" sodipodi:nodetypes="cc"/>
</svg>
